<svg width="1086" height="180" viewBox="0 0 1086 180" fill="none" xmlns="http://www.w3.org/2000/svg">
<g clip-path="url(#clip0_1_81)">
<rect width="1086" height="180" fill="white"/>
<path d="M1086 0H0V180H1086V0Z" fill="#003595"/>
<path d="M755 62V119H802.807V62H755ZM797.29 113.483H760.517V67.5166H797.29V113.483Z" fill="white"/>
<path d="M791.774 73.0331H766.033V107.967H791.774V73.0331Z" fill="#76BC21"/>
<path d="M817.085 83.3386C817.992 84.2018 819.066 84.8713 820.308 85.3472C821.55 85.823 822.903 86.061 824.364 86.061C825.825 86.061 827.144 85.823 828.367 85.3472C829.593 84.8713 830.658 84.2073 831.565 83.3525C832.473 82.4976 833.181 81.485 833.69 80.3148C834.202 79.1417 834.456 77.8691 834.456 76.4941C834.456 75.1191 834.202 73.8299 833.69 72.6762C833.178 71.5225 832.47 70.5127 831.565 69.6496C830.658 68.7864 829.593 68.1169 828.367 67.641C827.142 67.1652 825.8 66.9272 824.336 66.9272C822.873 66.9272 821.553 67.1652 820.319 67.641C819.085 68.1169 818.012 68.7864 817.093 69.6496C816.178 70.5127 815.469 71.5253 814.966 72.69C814.465 73.852 814.213 75.1219 814.213 76.4941C814.213 77.8663 814.465 79.1362 814.966 80.3009C815.469 81.4629 816.175 82.4782 817.082 83.3414L817.085 83.3386ZM818.988 74.0872C819.279 73.3651 819.688 72.7398 820.217 72.2114C820.745 71.683 821.359 71.2763 822.054 70.9941C822.751 70.7119 823.512 70.5708 824.339 70.5708C825.166 70.5708 825.935 70.7119 826.638 70.9941C827.343 71.2763 827.955 71.683 828.475 72.2114C828.992 72.7398 829.399 73.3651 829.69 74.0872C829.98 74.8093 830.124 75.6116 830.124 76.4913C830.124 77.3711 829.98 78.1734 829.69 78.8983C829.399 79.6204 828.99 80.2456 828.461 80.774C827.933 81.3024 827.319 81.7091 826.624 81.9913C825.93 82.2735 825.166 82.4118 824.339 82.4118C823.512 82.4118 822.745 82.2707 822.04 81.9913C821.334 81.7091 820.72 81.3024 820.203 80.774C819.683 80.2456 819.279 79.6148 818.988 78.8844C818.698 78.1541 818.551 77.3573 818.551 76.4913C818.551 75.6254 818.698 74.8093 818.988 74.0872Z" fill="white"/>
<path d="M853.886 67.2427H849.368L844.516 74.7208H841.439V67.2427H837.181V85.7428H841.439V78.2897H844.388L849.208 85.7428H854.071L847.841 76.1788L853.886 67.2427Z" fill="white"/>
<path d="M871.526 69.6468C870.619 68.7836 869.553 68.1141 868.328 67.6383C867.102 67.1624 865.76 66.9245 864.297 66.9245C862.833 66.9245 861.514 67.1624 860.28 67.6383C859.046 68.1141 857.972 68.7836 857.054 69.6468C856.138 70.51 855.43 71.5226 854.926 72.6873C854.426 73.8493 854.174 75.1191 854.174 76.4914C854.174 77.8636 854.426 79.1334 854.926 80.2982C855.43 81.4601 856.135 82.4755 857.043 83.3387C857.95 84.2018 859.024 84.8714 860.266 85.3472C861.508 85.8231 862.861 86.061 864.322 86.061C865.783 86.061 867.102 85.8231 868.325 85.3472C869.551 84.8714 870.616 84.2074 871.523 83.3525C872.431 82.4976 873.139 81.485 873.648 80.3148C874.16 79.1417 874.414 77.8691 874.414 76.4941C874.414 75.1191 874.16 73.8299 873.648 72.6762C873.136 71.5226 872.428 70.5128 871.523 69.6496L871.526 69.6468ZM869.65 78.8983C869.36 79.6204 868.95 80.2456 868.422 80.774C867.893 81.3025 867.279 81.7091 866.585 81.9913C865.89 82.2735 865.127 82.4119 864.3 82.4119C863.472 82.4119 862.706 82.2708 862.001 81.9913C861.295 81.7091 860.681 81.3025 860.164 80.774C859.643 80.2456 859.24 79.6148 858.949 78.8845C858.659 78.1541 858.512 77.3573 858.512 76.4914C858.512 75.6254 858.659 74.8093 858.949 74.0872C859.24 73.3651 859.649 72.7399 860.177 72.2114C860.706 71.683 861.32 71.2763 862.014 70.9941C862.712 70.712 863.472 70.5709 864.3 70.5709C865.127 70.5709 865.896 70.712 866.599 70.9941C867.304 71.2763 867.916 71.683 868.436 72.2114C868.953 72.7399 869.36 73.3651 869.65 74.0872C869.941 74.8093 870.085 75.6116 870.085 76.4914C870.085 77.3711 869.941 78.1734 869.65 78.8983Z" fill="white"/>
<path d="M881.475 78.1569H889.879V85.7428H894.162V67.2427H889.879V74.5354H881.475V67.2427H877.195V85.7428H881.475V78.1569Z" fill="white"/>
<path d="M915.224 85.7428V67.2427H910.944V74.5354H902.539V67.2427H898.259V85.7428H902.539V78.1569H910.944V85.7428H915.224Z" fill="white"/>
<path d="M941.891 67.2427H937.636V85.7428H941.891V67.2427Z" fill="white"/>
<path d="M933.459 74.8148C932.244 73.8189 930.515 73.3209 928.28 73.3209H923.576V67.2427H919.321V85.7428H927.671C930.05 85.7428 931.912 85.1978 933.259 84.105C934.607 83.0122 935.282 81.4104 935.282 79.2939C935.282 77.302 934.673 75.8108 933.459 74.8148ZM930.025 81.7507C929.392 82.2957 928.526 82.5696 927.436 82.5696H923.576V76.4886H927.436C928.545 76.4886 929.414 76.7127 930.039 77.1637C930.664 77.6118 930.977 78.3478 930.977 79.3686C930.977 80.3895 930.659 81.2001 930.025 81.7479V81.7507Z" fill="white"/>
<path d="M958.831 85.7428H963.058V67.2427H959.041L950.216 79.2939V67.2427H945.961V85.7428H950.003L958.831 73.7193V85.7428Z" fill="white"/>
<path d="M950.625 64.9962C951.444 65.7017 952.734 66.053 954.496 66.053C956.258 66.053 957.525 65.7017 958.355 64.9962C959.185 64.2907 959.606 63.2975 959.625 62.011H956.693C956.676 62.6446 956.482 63.126 956.112 63.4497C955.744 63.7761 955.204 63.9394 954.499 63.9394C953.793 63.9394 953.234 63.7761 952.875 63.4497C952.512 63.1232 952.324 62.6446 952.305 62.011H949.372C949.389 63.2975 949.806 64.2935 950.628 64.9962H950.625Z" fill="white"/>
<path d="M832.16 94.7675H827.642L822.792 102.246H819.713V94.7675H815.458V113.268H819.713V105.817H822.662L827.482 113.268H832.345L826.115 103.704L832.16 94.7675Z" fill="white"/>
<path d="M849.803 97.1716C848.895 96.3084 847.83 95.6389 846.604 95.1631C845.379 94.6872 844.037 94.4493 842.574 94.4493C841.11 94.4493 839.79 94.6872 838.556 95.1631C837.323 95.6389 836.249 96.3084 835.331 97.1716C834.415 98.0348 833.707 99.0473 833.203 100.212C832.702 101.374 832.451 102.644 832.451 104.016C832.451 105.388 832.702 106.658 833.203 107.823C833.707 108.985 834.412 110 835.32 110.863C836.227 111.727 837.3 112.396 838.543 112.872C839.785 113.348 841.138 113.586 842.598 113.586C844.059 113.586 845.379 113.348 846.602 112.872C847.827 112.396 848.892 111.732 849.8 110.877C850.707 110.022 851.416 109.01 851.925 107.84C852.436 106.667 852.691 105.394 852.691 104.019C852.691 102.644 852.436 101.355 851.925 100.201C851.413 99.0474 850.705 98.0375 849.8 97.1744L849.803 97.1716ZM847.927 106.423C847.636 107.145 847.227 107.77 846.698 108.299C846.17 108.827 845.556 109.234 844.861 109.516C844.167 109.798 843.403 109.937 842.576 109.937C841.749 109.937 840.983 109.796 840.277 109.516C839.572 109.234 838.958 108.827 838.44 108.299C837.92 107.77 837.516 107.14 837.226 106.409C836.935 105.679 836.789 104.882 836.789 104.016C836.789 103.15 836.935 102.334 837.226 101.612C837.516 100.89 837.926 100.265 838.454 99.7362C838.982 99.2078 839.597 98.8011 840.291 98.5189C840.988 98.2367 841.749 98.0956 842.576 98.0956C843.403 98.0956 844.173 98.2367 844.875 98.5189C845.581 98.8011 846.192 99.2078 846.712 99.7362C847.23 100.265 847.636 100.89 847.927 101.612C848.217 102.334 848.361 103.136 848.361 104.016C848.361 104.896 848.217 105.698 847.927 106.423Z" fill="white"/>
<path d="M868.156 102.063H859.751V94.7675H855.471V113.268H859.751V105.684H868.156V113.268H872.439V94.7675H868.156V102.063Z" fill="white"/>
<path d="M874.633 98.2561H880.526V113.268H884.753V98.2561H890.673V94.7675H874.633V98.2561Z" fill="white"/>
<path d="M897.095 106.819V94.7675H892.84V113.268H896.884L905.71 101.244V113.268H909.937V94.7675H905.923L897.095 106.819Z" fill="white"/>
<path d="M926.694 102.063H918.289V94.7675H914.01V113.268H918.289V105.684H926.694V113.268H930.974V94.7675H926.694V102.063Z" fill="white"/>
<path d="M939.327 105.552H947.917V102.221H939.327V98.2036H949.054V94.7675H935.074V113.268H949.397V109.832H939.327V105.552Z" fill="white"/>
<path d="M965.014 102.063H956.609V94.7675H952.33V113.268H956.609V105.684H965.014V113.268H969.297V94.7675H965.014V102.063Z" fill="white"/>
<path d="M987.532 94.7675H971.491V98.2561H977.384V113.268H981.611V98.2561H987.532V94.7675Z" fill="white"/>
<path d="M102.798 80.965L103.078 76.485C103.218 76.5083 103.358 76.5317 103.498 76.555C103.638 76.555 103.766 76.555 103.883 76.555C104.536 76.555 105.049 76.3683 105.423 75.995C105.796 75.6217 106.076 75.12 106.263 74.49C106.449 73.8367 106.578 73.1017 106.648 72.285C106.741 71.4683 106.811 70.6167 106.858 69.73L107.138 62.17H123.238V81H117.778V65.32L119.003 66.65H110.743L111.898 65.25L111.653 69.975C111.583 71.655 111.443 73.195 111.233 74.595C111.046 75.995 110.731 77.2083 110.288 78.235C109.844 79.2383 109.249 80.02 108.503 80.58C107.756 81.1167 106.799 81.385 105.633 81.385C105.213 81.385 104.769 81.35 104.303 81.28C103.836 81.21 103.334 81.105 102.798 80.965ZM137.693 81.28C135.547 81.28 133.657 80.86 132.023 80.02C130.413 79.18 129.165 78.0367 128.278 76.59C127.392 75.12 126.948 73.4517 126.948 71.585C126.948 69.695 127.38 68.0267 128.243 66.58C129.13 65.11 130.332 63.9667 131.848 63.15C133.365 62.31 135.08 61.89 136.993 61.89C138.837 61.89 140.493 62.2867 141.963 63.08C143.457 63.85 144.635 64.97 145.498 66.44C146.362 67.8867 146.793 69.625 146.793 71.655C146.793 71.865 146.782 72.11 146.758 72.39C146.735 72.6467 146.712 72.8917 146.688 73.125H131.393V69.94H143.818L141.718 70.885C141.718 69.905 141.52 69.0533 141.123 68.33C140.727 67.6067 140.178 67.0467 139.478 66.65C138.778 66.23 137.962 66.02 137.028 66.02C136.095 66.02 135.267 66.23 134.543 66.65C133.843 67.0467 133.295 67.6183 132.898 68.365C132.502 69.0883 132.303 69.9517 132.303 70.955V71.795C132.303 72.8217 132.525 73.7317 132.968 74.525C133.435 75.295 134.077 75.89 134.893 76.31C135.733 76.7067 136.713 76.905 137.833 76.905C138.837 76.905 139.712 76.7533 140.458 76.45C141.228 76.1467 141.928 75.6917 142.558 75.085L145.463 78.235C144.6 79.215 143.515 79.9733 142.208 80.51C140.902 81.0233 139.397 81.28 137.693 81.28ZM140.423 59.58C139.747 59.58 139.175 59.3583 138.708 58.915C138.242 58.4717 138.008 57.8883 138.008 57.165C138.008 56.4417 138.242 55.8583 138.708 55.415C139.175 54.9717 139.747 54.75 140.423 54.75C141.1 54.75 141.672 54.9717 142.138 55.415C142.628 55.8583 142.873 56.4417 142.873 57.165C142.873 57.8883 142.628 58.4717 142.138 58.915C141.672 59.3583 141.1 59.58 140.423 59.58ZM133.353 59.58C132.677 59.58 132.093 59.3583 131.603 58.915C131.137 58.4717 130.903 57.8883 130.903 57.165C130.903 56.4417 131.137 55.8583 131.603 55.415C132.093 54.9717 132.677 54.75 133.353 54.75C134.03 54.75 134.602 54.9717 135.068 55.415C135.535 55.8583 135.768 56.4417 135.768 57.165C135.768 57.8883 135.535 58.4717 135.068 58.915C134.602 59.3583 134.03 59.58 133.353 59.58ZM150.979 81V62.17H166.064V66.65H155.179L156.404 65.46V81H150.979ZM182.292 81L175.992 72.075L180.437 69.45L188.732 81H182.292ZM168.957 81V62.17H174.417V81H168.957ZM172.807 73.86V69.485H179.387V73.86H172.807ZM180.962 72.215L175.852 71.655L182.467 62.17H188.277L180.962 72.215ZM191.413 81V62.17H196.838V73.37L206.008 62.17H211.013V81H205.588V69.8L196.453 81H191.413ZM216.262 81V62.17H221.687V73.37L230.857 62.17H235.862V81H230.437V69.8L221.302 81H216.262ZM225.712 60.14C223.658 60.14 222.118 59.6967 221.092 58.81C220.065 57.9 219.54 56.535 219.517 54.715H223.087C223.11 55.5083 223.332 56.1383 223.752 56.605C224.172 57.0717 224.813 57.305 225.677 57.305C226.517 57.305 227.158 57.0717 227.602 56.605C228.068 56.1383 228.302 55.5083 228.302 54.715H231.942C231.942 56.535 231.417 57.9 230.367 58.81C229.317 59.6967 227.765 60.14 225.712 60.14ZM251.022 81V62.17H260.647C263.004 62.17 264.847 62.6017 266.177 63.465C267.507 64.305 268.172 65.495 268.172 67.035C268.172 68.575 267.542 69.7883 266.282 70.675C265.046 71.5383 263.401 71.97 261.347 71.97L261.907 70.71C264.194 70.71 265.897 71.13 267.017 71.97C268.161 72.81 268.732 74.035 268.732 75.645C268.732 77.3017 268.102 78.6083 266.842 79.565C265.582 80.5217 263.657 81 261.067 81H251.022ZM256.027 77.29H260.612C261.616 77.29 262.362 77.1267 262.852 76.8C263.366 76.45 263.622 75.925 263.622 75.225C263.622 74.5017 263.389 73.9767 262.922 73.65C262.456 73.3 261.721 73.125 260.717 73.125H256.027V77.29ZM256.027 69.905H260.157C261.114 69.905 261.826 69.73 262.292 69.38C262.782 69.03 263.027 68.5283 263.027 67.875C263.027 67.1983 262.782 66.6967 262.292 66.37C261.826 66.0433 261.114 65.88 260.157 65.88H256.027V69.905ZM292.185 81V62.17H297.61V81H292.185ZM282.7 68.19C285.173 68.2133 287.028 68.7733 288.265 69.87C289.525 70.9433 290.155 72.4717 290.155 74.455C290.155 76.5317 289.443 78.1533 288.02 79.32C286.597 80.4633 284.578 81.035 281.965 81.035L272.795 81V62.17H278.22V68.19H282.7ZM281.475 77.15C282.525 77.1733 283.33 76.9517 283.89 76.485C284.45 76.0183 284.73 75.3183 284.73 74.385C284.73 73.4517 284.45 72.7867 283.89 72.39C283.33 71.97 282.525 71.7483 281.475 71.725L278.22 71.69V77.15H281.475ZM312.218 81.42C310.678 81.42 309.278 81.1983 308.018 80.755C306.758 80.2883 305.661 79.5767 304.728 78.62C303.818 77.64 303.106 76.3917 302.593 74.875C302.103 73.3583 301.858 71.55 301.858 69.45C301.858 67.9567 301.986 66.5917 302.243 65.355C302.5 64.1183 302.885 62.9983 303.398 61.995C303.911 60.9683 304.565 60.07 305.358 59.3C306.175 58.5067 307.12 57.8533 308.193 57.34C309.29 56.8033 310.526 56.395 311.903 56.115L320.863 54.33L321.598 59.02L313.688 60.595C313.221 60.6883 312.685 60.8167 312.078 60.98C311.495 61.12 310.9 61.3417 310.293 61.645C309.71 61.9483 309.161 62.38 308.648 62.94C308.158 63.4767 307.761 64.1883 307.458 65.075C307.155 65.9383 307.003 67.0117 307.003 68.295C307.003 68.6917 307.015 68.995 307.038 69.205C307.085 69.415 307.12 69.6367 307.143 69.87C307.19 70.1033 307.213 70.465 307.213 70.955L305.463 69.24C305.976 68.1433 306.63 67.21 307.423 66.44C308.24 65.67 309.173 65.0867 310.223 64.69C311.296 64.27 312.486 64.06 313.793 64.06C315.566 64.06 317.118 64.4217 318.448 65.145C319.801 65.845 320.851 66.8367 321.598 68.12C322.345 69.4033 322.718 70.8617 322.718 72.495C322.718 74.2683 322.275 75.8317 321.388 77.185C320.501 78.515 319.265 79.5533 317.678 80.3C316.115 81.0467 314.295 81.42 312.218 81.42ZM312.498 77.185C313.408 77.185 314.213 76.9867 314.913 76.59C315.613 76.17 316.15 75.6217 316.523 74.945C316.92 74.245 317.118 73.4633 317.118 72.6C317.118 71.76 316.92 71.0133 316.523 70.36C316.15 69.7067 315.613 69.1933 314.913 68.82C314.213 68.4467 313.396 68.26 312.463 68.26C311.553 68.26 310.736 68.4467 310.013 68.82C309.29 69.17 308.73 69.66 308.333 70.29C307.936 70.92 307.738 71.655 307.738 72.495C307.738 73.3583 307.936 74.1517 308.333 74.875C308.753 75.575 309.313 76.135 310.013 76.555C310.736 76.975 311.565 77.185 312.498 77.185ZM335.243 81.28C333.236 81.28 331.451 80.86 329.888 80.02C328.348 79.18 327.123 78.0367 326.213 76.59C325.326 75.12 324.883 73.4517 324.883 71.585C324.883 69.695 325.326 68.0267 326.213 66.58C327.123 65.11 328.348 63.9667 329.888 63.15C331.451 62.31 333.236 61.89 335.243 61.89C337.226 61.89 339 62.31 340.563 63.15C342.126 63.9667 343.351 65.0983 344.238 66.545C345.125 67.9917 345.568 69.6717 345.568 71.585C345.568 73.4517 345.125 75.12 344.238 76.59C343.351 78.0367 342.126 79.18 340.563 80.02C339 80.86 337.226 81.28 335.243 81.28ZM335.243 76.8C336.153 76.8 336.97 76.59 337.693 76.17C338.416 75.75 338.988 75.155 339.408 74.385C339.828 73.5917 340.038 72.6583 340.038 71.585C340.038 70.4883 339.828 69.555 339.408 68.785C338.988 68.015 338.416 67.42 337.693 67C336.97 66.58 336.153 66.37 335.243 66.37C334.333 66.37 333.516 66.58 332.793 67C332.07 67.42 331.486 68.015 331.043 68.785C330.623 69.555 330.413 70.4883 330.413 71.585C330.413 72.6583 330.623 73.5917 331.043 74.385C331.486 75.155 332.07 75.75 332.793 76.17C333.516 76.59 334.333 76.8 335.243 76.8ZM360.418 81.28C358.832 81.28 357.443 80.93 356.253 80.23C355.063 79.53 354.13 78.4683 353.453 77.045C352.8 75.5983 352.473 73.7783 352.473 71.585C352.473 69.3683 352.788 67.5483 353.418 66.125C354.048 64.7017 354.958 63.64 356.148 62.94C357.338 62.24 358.762 61.89 360.418 61.89C362.192 61.89 363.778 62.2983 365.178 63.115C366.602 63.9083 367.722 65.0283 368.538 66.475C369.378 67.9217 369.798 69.625 369.798 71.585C369.798 73.5683 369.378 75.2833 368.538 76.73C367.722 78.1767 366.602 79.2967 365.178 80.09C363.778 80.8833 362.192 81.28 360.418 81.28ZM349.288 87.79V62.17H354.503V66.02L354.398 71.62L354.748 77.185V87.79H349.288ZM359.473 76.8C360.383 76.8 361.188 76.59 361.888 76.17C362.612 75.75 363.183 75.155 363.603 74.385C364.047 73.5917 364.268 72.6583 364.268 71.585C364.268 70.4883 364.047 69.555 363.603 68.785C363.183 68.015 362.612 67.42 361.888 67C361.188 66.58 360.383 66.37 359.473 66.37C358.563 66.37 357.747 66.58 357.023 67C356.3 67.42 355.728 68.015 355.308 68.785C354.888 69.555 354.678 70.4883 354.678 71.585C354.678 72.6583 354.888 73.5917 355.308 74.385C355.728 75.155 356.3 75.75 357.023 76.17C357.747 76.59 358.563 76.8 359.473 76.8Z" fill="white"/>
<path d="M162.429 119V100.17H167.854V107.52H176.044V100.17H181.504V119H176.044V111.965H167.854V119H162.429ZM198 119V115.325L197.65 114.52V107.94C197.65 106.773 197.289 105.863 196.565 105.21C195.865 104.557 194.78 104.23 193.31 104.23C192.307 104.23 191.315 104.393 190.335 104.72C189.379 105.023 188.562 105.443 187.885 105.98L185.925 102.165C186.952 101.442 188.189 100.882 189.635 100.485C191.082 100.088 192.552 99.89 194.045 99.89C196.915 99.89 199.144 100.567 200.73 101.92C202.317 103.273 203.11 105.385 203.11 108.255V119H198ZM192.26 119.28C190.79 119.28 189.53 119.035 188.48 118.545C187.43 118.032 186.625 117.343 186.065 116.48C185.505 115.617 185.225 114.648 185.225 113.575C185.225 112.455 185.494 111.475 186.03 110.635C186.59 109.795 187.465 109.142 188.655 108.675C189.845 108.185 191.397 107.94 193.31 107.94H198.315V111.125H193.905C192.622 111.125 191.735 111.335 191.245 111.755C190.779 112.175 190.545 112.7 190.545 113.33C190.545 114.03 190.814 114.59 191.35 115.01C191.91 115.407 192.669 115.605 193.625 115.605C194.535 115.605 195.352 115.395 196.075 114.975C196.799 114.532 197.324 113.89 197.65 113.05L198.49 115.57C198.094 116.783 197.37 117.705 196.32 118.335C195.27 118.965 193.917 119.28 192.26 119.28ZM220.804 116.55V104.65H214.644L214.539 107.065C214.492 108.068 214.434 109.025 214.364 109.935C214.294 110.845 214.154 111.673 213.944 112.42C213.757 113.143 213.477 113.762 213.104 114.275C212.73 114.765 212.229 115.103 211.599 115.29L206.209 114.52C206.885 114.52 207.434 114.322 207.854 113.925C208.274 113.505 208.6 112.933 208.834 112.21C209.067 111.463 209.242 110.623 209.359 109.69C209.475 108.733 209.557 107.73 209.604 106.68L209.849 100.17H226.264V116.55H220.804ZM205.579 123.06V114.52H228.959V123.06H223.884V119H210.654V123.06H205.579ZM241.6 119.28C239.453 119.28 237.563 118.86 235.93 118.02C234.32 117.18 233.071 116.037 232.185 114.59C231.298 113.12 230.855 111.452 230.855 109.585C230.855 107.695 231.286 106.027 232.15 104.58C233.036 103.11 234.238 101.967 235.755 101.15C237.271 100.31 238.986 99.89 240.9 99.89C242.743 99.89 244.4 100.287 245.87 101.08C247.363 101.85 248.541 102.97 249.405 104.44C250.268 105.887 250.7 107.625 250.7 109.655C250.7 109.865 250.688 110.11 250.665 110.39C250.641 110.647 250.618 110.892 250.595 111.125H235.3V107.94H247.725L245.625 108.885C245.625 107.905 245.426 107.053 245.03 106.33C244.633 105.607 244.085 105.047 243.385 104.65C242.685 104.23 241.868 104.02 240.935 104.02C240.001 104.02 239.173 104.23 238.45 104.65C237.75 105.047 237.201 105.618 236.805 106.365C236.408 107.088 236.21 107.952 236.21 108.955V109.795C236.21 110.822 236.431 111.732 236.875 112.525C237.341 113.295 237.983 113.89 238.8 114.31C239.64 114.707 240.62 114.905 241.74 114.905C242.743 114.905 243.618 114.753 244.365 114.45C245.135 114.147 245.835 113.692 246.465 113.085L249.37 116.235C248.506 117.215 247.421 117.973 246.115 118.51C244.808 119.023 243.303 119.28 241.6 119.28ZM244.33 97.58C243.653 97.58 243.081 97.3583 242.615 96.915C242.148 96.4717 241.915 95.8883 241.915 95.165C241.915 94.4417 242.148 93.8583 242.615 93.415C243.081 92.9717 243.653 92.75 244.33 92.75C245.006 92.75 245.578 92.9717 246.045 93.415C246.535 93.8583 246.78 94.4417 246.78 95.165C246.78 95.8883 246.535 96.4717 246.045 96.915C245.578 97.3583 245.006 97.58 244.33 97.58ZM237.26 97.58C236.583 97.58 236 97.3583 235.51 96.915C235.043 96.4717 234.81 95.8883 234.81 95.165C234.81 94.4417 235.043 93.8583 235.51 93.415C236 92.9717 236.583 92.75 237.26 92.75C237.936 92.75 238.508 92.9717 238.975 93.415C239.441 93.8583 239.675 94.4417 239.675 95.165C239.675 95.8883 239.441 96.4717 238.975 96.915C238.508 97.3583 237.936 97.58 237.26 97.58ZM277.017 119L272.012 110.075L276.422 107.45L283.492 119H277.017ZM268.792 111.86V107.485H275.337V111.86H268.792ZM276.982 110.215L271.837 109.655L277.262 100.17H283.037L276.982 110.215ZM258.397 119H251.957L258.992 107.45L263.402 110.075L258.397 119ZM270.402 119H265.012V100.17H270.402V119ZM266.622 111.86H260.112V107.485H266.622V111.86ZM258.432 110.215L252.377 100.17H258.152L263.542 109.655L258.432 110.215ZM286.33 119V100.17H291.755V107.52H299.945V100.17H305.405V119H299.945V111.965H291.755V119H286.33ZM319.452 119.28C317.445 119.28 315.66 118.86 314.097 118.02C312.557 117.18 311.332 116.037 310.422 114.59C309.535 113.12 309.092 111.452 309.092 109.585C309.092 107.695 309.535 106.027 310.422 104.58C311.332 103.11 312.557 101.967 314.097 101.15C315.66 100.31 317.445 99.89 319.452 99.89C321.435 99.89 323.209 100.31 324.772 101.15C326.335 101.967 327.56 103.098 328.447 104.545C329.334 105.992 329.777 107.672 329.777 109.585C329.777 111.452 329.334 113.12 328.447 114.59C327.56 116.037 326.335 117.18 324.772 118.02C323.209 118.86 321.435 119.28 319.452 119.28ZM319.452 114.8C320.362 114.8 321.179 114.59 321.902 114.17C322.625 113.75 323.197 113.155 323.617 112.385C324.037 111.592 324.247 110.658 324.247 109.585C324.247 108.488 324.037 107.555 323.617 106.785C323.197 106.015 322.625 105.42 321.902 105C321.179 104.58 320.362 104.37 319.452 104.37C318.542 104.37 317.725 104.58 317.002 105C316.279 105.42 315.695 106.015 315.252 106.785C314.832 107.555 314.622 108.488 314.622 109.585C314.622 110.658 314.832 111.592 315.252 112.385C315.695 113.155 316.279 113.75 317.002 114.17C317.725 114.59 318.542 114.8 319.452 114.8ZM333.532 119V100.17H348.617V104.65H337.732L338.957 103.46V119H333.532ZM359.545 119.28C357.538 119.28 355.753 118.86 354.19 118.02C352.65 117.18 351.425 116.037 350.515 114.59C349.628 113.12 349.185 111.452 349.185 109.585C349.185 107.695 349.628 106.027 350.515 104.58C351.425 103.11 352.65 101.967 354.19 101.15C355.753 100.31 357.538 99.89 359.545 99.89C361.528 99.89 363.301 100.31 364.865 101.15C366.428 101.967 367.653 103.098 368.54 104.545C369.426 105.992 369.87 107.672 369.87 109.585C369.87 111.452 369.426 113.12 368.54 114.59C367.653 116.037 366.428 117.18 364.865 118.02C363.301 118.86 361.528 119.28 359.545 119.28ZM359.545 114.8C360.455 114.8 361.271 114.59 361.995 114.17C362.718 113.75 363.29 113.155 363.71 112.385C364.13 111.592 364.34 110.658 364.34 109.585C364.34 108.488 364.13 107.555 363.71 106.785C363.29 106.015 362.718 105.42 361.995 105C361.271 104.58 360.455 104.37 359.545 104.37C358.635 104.37 357.818 104.58 357.095 105C356.371 105.42 355.788 106.015 355.345 106.785C354.925 107.555 354.715 108.488 354.715 109.585C354.715 110.658 354.925 111.592 355.345 112.385C355.788 113.155 356.371 113.75 357.095 114.17C357.818 114.59 358.635 114.8 359.545 114.8Z" fill="white"/>
<path d="M423.991 119.84C417.971 119.84 412.616 118.58 407.926 116.06C403.306 113.54 399.631 110.11 396.901 105.77C394.241 101.36 392.911 96.355 392.911 90.755C392.911 85.085 394.241 80.08 396.901 75.74C399.631 71.33 403.306 67.9 407.926 65.45C412.616 62.93 417.971 61.67 423.991 61.67C429.941 61.67 435.261 62.93 439.951 65.45C444.641 67.9 448.316 71.295 450.976 75.635C453.636 79.975 454.966 85.015 454.966 90.755C454.966 96.355 453.636 101.36 450.976 105.77C448.316 110.11 444.641 113.54 439.951 116.06C435.261 118.58 429.941 119.84 423.991 119.84ZM423.991 106.4C426.721 106.4 429.171 105.77 431.341 104.51C433.511 103.25 435.226 101.465 436.486 99.155C437.746 96.775 438.376 93.975 438.376 90.755C438.376 87.465 437.746 84.665 436.486 82.355C435.226 80.045 433.511 78.26 431.341 77C429.171 75.74 426.721 75.11 423.991 75.11C421.261 75.11 418.811 75.74 416.641 77C414.471 78.26 412.721 80.045 411.391 82.355C410.131 84.665 409.501 87.465 409.501 90.755C409.501 93.975 410.131 96.775 411.391 99.155C412.721 101.465 414.471 103.25 416.641 104.51C418.811 105.77 421.261 106.4 423.991 106.4ZM506.237 119L487.337 92.225L500.672 84.35L525.557 119H506.237ZM466.232 119V62.51H482.612V119H466.232ZM477.782 97.58V84.455H497.522V97.58H477.782ZM502.247 92.645L486.917 90.965L506.762 62.51H524.192L502.247 92.645ZM533.601 119V62.51H549.876V84.56H574.446V62.51H590.826V119H574.446V97.895H549.876V119H533.601ZM640.316 119V107.975L639.266 105.56V85.82C639.266 82.32 638.181 79.59 636.011 77.63C633.911 75.67 630.656 74.69 626.246 74.69C623.236 74.69 620.261 75.18 617.321 76.16C614.451 77.07 612.001 78.33 609.971 79.94L604.091 68.495C607.171 66.325 610.881 64.645 615.221 63.455C619.561 62.265 623.971 61.67 628.451 61.67C637.061 61.67 643.746 63.7 648.506 67.76C653.266 71.82 655.646 78.155 655.646 86.765V119H640.316ZM623.096 119.84C618.686 119.84 614.906 119.105 611.756 117.635C608.606 116.095 606.191 114.03 604.511 111.44C602.831 108.85 601.991 105.945 601.991 102.725C601.991 99.365 602.796 96.425 604.406 93.905C606.086 91.385 608.711 89.425 612.281 88.025C615.851 86.555 620.506 85.82 626.246 85.82H641.261V95.375H628.031C624.181 95.375 621.521 96.005 620.051 97.265C618.651 98.525 617.951 100.1 617.951 101.99C617.951 104.09 618.756 105.77 620.366 107.03C622.046 108.22 624.321 108.815 627.191 108.815C629.921 108.815 632.371 108.185 634.541 106.925C636.711 105.595 638.286 103.67 639.266 101.15L641.786 108.71C640.596 112.35 638.426 115.115 635.276 117.005C632.126 118.895 628.066 119.84 623.096 119.84Z" fill="white"/>
</g>
<defs>
<clipPath id="clip0_1_81">
<rect width="1086" height="180" fill="white"/>
</clipPath>
</defs>
</svg>
